Coordinates
version=1
nRows=14
nColumns=36
inDegrees=yes

Units are S.I. units (second, meters, Newtons, ...)
If the header above contains a line with 'inDegrees', this indicates whether rotational values are in degrees (yes) or radians (no).

endheader
time	pelvis_tilt	pelvis_list	pelvis_rotation	pelvis_tx	pelvis_ty	pelvis_tz	hip_flexion_r	hip_adduction_r	hip_rotation_r	knee_angle_r	knee_angle_r_beta	ankle_angle_r	subtalar_angle_r	mtp_angle_r	hip_flexion_l	hip_adduction_l	hip_rotation_l	knee_angle_l	knee_angle_l_beta	ankle_angle_l	subtalar_angle_l	mtp_angle_l	lumbar_extension	lumbar_bending	lumbar_rotation	arm_flex_r	arm_add_r	arm_rot_r	elbow_flex_r	pro_sup_r	arm_flex_l	arm_add_l	arm_rot_l	elbow_flex_l	pro_sup_l
      1.07000000	     -4.17622090	     -0.89998853	      2.31307501	      1.05434298	      0.94929363	     -0.21302925	     25.62530790	      2.68839252	      0.71975518	      8.70344919	      0.15190384	     -1.79359698	    -12.97289924	     -7.32179653	     -9.09824860	      4.30839406	     -2.92950268	      0.83980821	      0.01465742	     11.79257299	      2.47948446	     -7.32179653	     -9.11596772	    -10.85314047	     -6.03551137	     -2.55217487	     -5.65694714	      3.39781484	     32.95805657	    111.12226622	     10.79041045	     -8.48314748	      9.93312281	     28.85048885	    106.48808619
      1.08000000	     -4.19895146	     -0.90542004	      2.57858364	      1.06630057	      0.94690459	     -0.21494132	     25.44852765	      2.75011172	      0.53932678	      5.91719031	      0.10327445	     -1.40617546	    -11.21199512	     -7.33261848	     -9.95431299	      4.32064570	     -3.40727974	      0.76436388	      0.01334067	     12.56411131	      3.79213802	     -7.33261848	     -8.89001804	    -10.26390019	     -5.95931018	     -2.82684236	     -5.52868484	      1.96723967	     33.12234463	    111.29692951	     10.58636515	     -8.44898671	     10.53820243	     29.44465588	    106.68945315
      1.09000000	     -4.27257220	     -0.89849794	      2.82716961	      1.07830945	      0.94432528	     -0.21679215	     25.36570343	      2.82814004	      0.39652859	      3.42922644	      0.05985129	     -1.22056034	    -10.04841462	     -7.33555716	    -10.75475678	      4.35026774	     -3.40035168	      0.71496975	      0.01247858	     12.92599025	      4.04559868	     -7.33555716	     -8.60194483	     -9.69802518	     -5.97430891	     -2.92627118	     -5.52740718	      1.45824816	     32.95545029	    111.18873931	     10.29956697	     -8.43890571	     10.90289029	     30.04731146	    106.72951664
      1.10000000	     -4.45841209	     -0.84524107	      3.04236641	      1.09032319	      0.94147367	     -0.21855734	     25.62852215	      2.88115446	     -0.03479330	      1.63625229	      0.02855799	     -0.81729558	     -9.22993341	     -7.33726684	    -11.39098272	      4.41727762	     -3.34304457	      0.73570005	      0.01284039	     13.11817345	      4.37033639	     -7.33726684	     -8.17866817	     -9.19945798	     -5.90012609	     -3.07580538	     -5.52947095	      0.99577794	     32.80047886	    111.07988358	     10.01882169	     -8.38839762	     11.20030758	     30.60703338	    106.76700026
      1.11000000	     -4.39189277	     -0.73810419	      3.21281654	      1.10257929	      0.93894239	     -0.22028205	     25.99585518	      2.87555494	     -1.82363078	      0.91766758	      0.01601632	      1.20280601	     -5.96832740	     -7.34453637	    -12.30235118	      4.50352225	     -3.69886782	      0.77644444	      0.01355151	     13.66860610	      5.52444850	     -7.34453637	     -8.10239442	     -8.71818873	     -5.85538844	     -3.22072036	     -5.20578630	     -0.96523061	     32.91228878	    111.10673818	      9.62627393	     -8.55862650	     11.92635930	     31.58084932	    106.96213674
      1.12000000	     -4.60010192	     -0.61913957	      3.34958826	      1.11478626	      0.93605053	     -0.22187587	     26.72879960	      2.90539670	     -3.17264026	      0.61403024	      0.01071685	      2.47729323	     -4.48343270	     -7.34873929	    -12.89061206	      4.61988355	     -3.51054286	      0.85966884	      0.01500405	     13.96082719	      5.81785490	     -7.34873929	     -7.67614430	     -8.30567303	     -5.72797115	     -3.34484512	     -5.05217205	     -1.84902175	     32.77532644	    111.09026269	      9.30667831	     -8.61487732	     12.39231445	     32.06922493	    107.02235469
      1.13000000	     -4.65745761	     -0.54122944	      3.46836648	      1.12728653	      0.93343621	     -0.22342192	     27.20790577	      3.00685337	     -4.21552762	      0.51494982	      0.00898757	      3.65571142	     -3.51210959	     -7.35161956	    -13.61558015	      4.65954099	     -3.37615730	      1.00287894	      0.01750354	     13.89347733	      6.03845895	     -7.35161956	     -7.39926105	     -7.83394395	     -5.58701186	     -3.45547178	     -4.96731618	     -2.58132628	     32.63735393	    111.03039412	      9.03503331	     -8.60188881	     12.72815920	     32.47983171	    107.04831592
      1.14000000	     -4.70786616	     -0.32936745	      3.46595844	      1.13991667	      0.93092455	     -0.22482056	     27.54278770	      3.03929988	     -4.45666251	      0.45643572	      0.00796631	      3.87687255	     -3.49307125	     -7.35201850	    -14.29663193	      4.87421198	     -3.33837057	      1.26302604	      0.02204396	     13.86757281	      6.06767224	     -7.35201850	     -7.14250140	     -7.53195999	     -5.47763639	     -3.50976454	     -4.96781096	     -2.68764876	     32.60130385	    110.96414691	      8.76164753	     -8.57007145	     12.78948192	     32.50217105	    107.01673641
      1.15000000	     -4.56012556	     -0.39065234	      3.72908353	      1.15318009	      0.92885366	     -0.22653492	     27.52437778	      3.20645172	     -5.78490824	      0.54843589	      0.00957201	      5.67748526	     -1.61701094	     -7.35858481	    -15.18317436	      4.68086063	     -3.13078823	      1.55024317	      0.02705685	     13.83397517	      6.42300837	     -7.35858481	     -7.11781534	     -6.83367613	     -5.42128525	     -3.68051202	     -4.57156745	     -4.90168775	     32.58234794	    110.96770545	      8.40889342	     -8.67170753	     13.47328434	     33.04405338	    107.12587765
      1.16000000	     -4.47392568	     -0.40180743	      3.88879012	      1.16654380	      0.92679281	     -0.22812002	     27.41398348	      3.40519058	     -5.85726625	      0.66370712	      0.01158387	      6.13597140	     -2.04878741	     -7.36004376	    -15.88515006	      4.56373716	     -3.01315745	      2.07443241	      0.03620568	     13.66104248	      6.50757788	     -7.36004376	     -6.96817325	     -6.22603376	     -5.40688585	     -3.76895420	     -4.53758836	     -5.24705683	     32.48502820	    110.92379149	      8.07966394	     -8.61393191	     13.63503946	     33.00615806	    107.09850634
      1.17000000	     -4.30971733	     -0.45961668	      4.05735924	      1.18019548	      0.92496999	     -0.22971707	     27.11690422	      3.65382181	     -5.76778716	      0.87806022	      0.01532504	      6.30554012	     -2.77388552	     -7.36165597	    -16.58393533	      4.37182973	     -3.00376483	      2.76597550	      0.04827538	     13.40831110	      6.61059090	     -7.36165597	     -6.87883977	     -5.54428828	     -5.41144036	     -3.83425771	     -4.46664192	     -5.82651257	     32.32438208	    110.92227946	      7.70964696	     -8.56534163	     13.84438222	     32.97867091	    107.12533035
      1.18000000	     -4.20248115	     -0.53176048	      4.17984479	      1.19407034	      0.92321323	     -0.23130853	     26.86146647	      3.90020940	     -5.49328517	      1.34046415	      0.02339551	      6.17530872	     -3.16818249	     -7.36229304	    -17.17764352	      4.17606242	     -2.83240438	      3.55393797	      0.06202792	     13.07591152	      6.71942563	     -7.36229304	     -6.72449432	     -4.85731333	     -5.34820923	     -3.94211287	     -4.50008168	     -6.10344065	     32.21271316	    110.91068629	      7.31173807	     -8.45363786	     13.94930794	     32.88016710	    107.13196776
      1.19000000	     -4.17379343	     -0.67522412	      4.24627496	      1.20807094	      0.92144280	     -0.23258920	     26.57496002	      4.32549887	     -4.34099478	      1.69764727	      0.02962953	      4.07842948	     -6.71440762	     -7.36872006	    -17.36100048	      3.84201168	     -3.70446867	      4.91602906	      0.08580089	     13.00649402	      7.56448500	     -7.36872006	     -6.40600771	     -4.07243998	     -5.03603399	     -4.20875209	     -4.18668474	     -8.12030146	     32.23973223	    110.97003571	      7.07827673	     -8.31044071	     14.45947478	     32.38804979	    107.15192832
      1.20000000	     -4.01795970	     -0.88314005	      4.34365521	      1.22237713	      0.92009134	     -0.23414659	     26.28533792	      4.69539735	     -4.24254064	      2.52127355	      0.04400452	      3.25730033	     -7.38571456	     -7.37036920	    -17.69379564	      3.45466949	     -4.02346452	      6.24388613	      0.10897637	     12.31804515	      7.50320475	     -7.37036920	     -6.24753090	     -3.17400923	     -4.97081655	     -4.36323046	     -4.28690378	     -8.32930039	     32.19564436	    111.02153010	      6.66674451	     -8.12947193	     14.59755962	     32.01352410	    107.13307825
